<svg width="20" height="20" viewBox="0 0 20 20" fill="none" xmlns="http://www.w3.org/2000/svg">
<path fill-rule="evenodd" clip-rule="evenodd" d="M9.08005 2.58283C9.12579 2.17115 8.82914 1.80033 8.41746 1.75459C8.00578 1.70885 7.63496 2.0055 7.58922 2.41718L6.55224 11.7501H1.66797C1.25376 11.7501 0.917969 12.0858 0.917969 12.5001C0.917969 12.9143 1.25376 13.2501 1.66797 13.2501H6.38557L5.92256 17.4172C5.87681 17.8289 6.17346 18.1997 6.58514 18.2454C6.99683 18.2912 7.36764 17.9945 7.41338 17.5828L7.8948 13.2501L11.3856 13.2501L10.9226 17.4172C10.8768 17.8289 11.1735 18.1997 11.5851 18.2454C11.9968 18.2912 12.3676 17.9945 12.4134 17.5828L12.8948 13.2501H16.668C17.0822 13.2501 17.418 12.9143 17.418 12.5001C17.418 12.0858 17.0822 11.7501 16.668 11.7501H13.0615L13.2467 10.0828C13.2925 9.67115 12.9958 9.30033 12.5841 9.25459C12.1724 9.20885 11.8016 9.5055 11.7559 9.91718L11.5522 11.7501L8.06147 11.7501L8.45036 8.25006H12.7754H12.7846H17.5013C17.9155 8.25006 18.2513 7.91427 18.2513 7.50006C18.2513 7.08584 17.9155 6.75006 17.5013 6.75006H13.617L13.6634 6.33283L14.08 2.58283C14.1258 2.17115 13.8291 1.80033 13.4175 1.75459C13.0058 1.70885 12.635 2.0055 12.5892 2.41718L12.1726 6.16718L12.1078 6.75006H8.61702L9.08005 2.58283ZM1.7513 7.50006C1.7513 7.08584 2.08709 6.75006 2.5013 6.75006H5.0013C5.41552 6.75006 5.7513 7.08584 5.7513 7.50006C5.7513 7.91427 5.41552 8.25006 5.0013 8.25006H2.5013C2.08709 8.25006 1.7513 7.91427 1.7513 7.50006Z" fill="#366CF8"/>
</svg>
